HIERARCHY
ROOT mixamorig:Hips
{
	OFFSET -0.000008 104.274872 1.554316
	CHANNELS 6 Xposition Yposition Zposition Xrotation Yrotation Zrotation
	JOINT mixamorig:Spine
	{
		OFFSET -0.000005 10.181595 0.131519
		CHANNELS 6 Xposition Yposition Zposition Xrotation Yrotation Zrotation
		JOINT mixamorig:Spine1
		{
			OFFSET -0.000000 9.893959 -1.470707
			CHANNELS 6 Xposition Yposition Zposition Xrotation Yrotation Zrotation
			JOINT mixamorig:Spine2
			{
				OFFSET -0.000000 9.220757 -1.370641
				CHANNELS 6 Xposition Yposition Zposition Xrotation Yrotation Zrotation
				JOINT mixamorig:Neck
				{
					OFFSET 0.000001 16.740417 -2.049036
					CHANNELS 6 Xposition Yposition Zposition Xrotation Yrotation Zrotation
					JOINT mixamorig:Head
					{
						OFFSET 0.000000 9.617874 1.685006
						CHANNELS 6 Xposition Yposition Zposition Xrotation Yrotation Zrotation
						JOINT mixamorig:HeadTop_End
						{
							OFFSET 0.000002 22.037354 7.501101
							CHANNELS 6 Xposition Yposition Zposition Xrotation Yrotation Zrotation
							End Site
							{
								OFFSET 0.000168 2310.654297 -282.823242
							}
						}
					}
				}
				JOINT mixamorig:RightShoulder
				{
					OFFSET -4.569970 11.014908 -2.160885
					CHANNELS 6 Xposition Yposition Zposition Xrotation Yrotation Zrotation
					JOINT mixamorig:RightArm
					{
						OFFSET -10.592851 -0.524811 -2.232101
						CHANNELS 6 Xposition Yposition Zposition Xrotation Yrotation Zrotation
						JOINT mixamorig:RightForeArm
						{
							OFFSET -27.841511 0.000031 -0.000004
							CHANNELS 6 Xposition Yposition Zposition Xrotation Yrotation Zrotation
							JOINT mixamorig:RightHand
							{
								OFFSET -28.328831 -0.000015 0.000015
								CHANNELS 6 Xposition Yposition Zposition Xrotation Yrotation Zrotation
								JOINT mixamorig:RightHandThumb1
								{
									OFFSET -2.464806 -1.573990 2.681852
									CHANNELS 6 Xposition Yposition Zposition Xrotation Yrotation Zrotation
									JOINT mixamorig:RightHandThumb2
									{
										OFFSET -3.215179 -1.872803 1.924282
										CHANNELS 6 Xposition Yposition Zposition Xrotation Yrotation Zrotation
										JOINT mixamorig:RightHandThumb3
										{
											OFFSET -2.654831 -1.527969 1.512609
											CHANNELS 6 Xposition Yposition Zposition Xrotation Yrotation Zrotation
											JOINT mixamorig:RightHandThumb4
											{
												OFFSET -2.018814 -1.152008 1.108052
												CHANNELS 6 Xposition Yposition Zposition Xrotation Yrotation Zrotation
												End Site
												{
													OFFSET -188.809540 -114.533607 132.431396
												}
											}
										}
									}
								}
								JOINT mixamorig:RightHandIndex1
								{
									OFFSET -9.108284 -0.517868 2.259835
									CHANNELS 6 Xposition Yposition Zposition Xrotation Yrotation Zrotation
									JOINT mixamorig:RightHandIndex2
									{
										OFFSET -3.699989 0.000000 0.001215
										CHANNELS 6 Xposition Yposition Zposition Xrotation Yrotation Zrotation
										JOINT mixamorig:RightHandIndex3
										{
											OFFSET -2.850006 0.000031 -0.000522
											CHANNELS 6 Xposition Yposition Zposition Xrotation Yrotation Zrotation
											JOINT mixamorig:RightHandIndex4
											{
												OFFSET -2.772186 -0.000015 -0.000020
												CHANNELS 6 Xposition Yposition Zposition Xrotation Yrotation Zrotation
												End Site
												{
													OFFSET -277.218445 0.000000 -0.050231
												}
											}
										}
									}
								}
								JOINT mixamorig:RightHandMiddle1
								{
									OFFSET -9.532516 -0.000031 -0.000023
									CHANNELS 6 Xposition Yposition Zposition Xrotation Yrotation Zrotation
									JOINT mixamorig:RightHandMiddle2
									{
										OFFSET -3.700005 -0.000015 0.003713
										CHANNELS 6 Xposition Yposition Zposition Xrotation Yrotation Zrotation
										JOINT mixamorig:RightHandMiddle3
										{
											OFFSET -2.949974 0.000015 -0.002054
											CHANNELS 6 Xposition Yposition Zposition Xrotation Yrotation Zrotation
											JOINT mixamorig:RightHandMiddle4
											{
												OFFSET -2.946640 0.000000 -0.000156
												CHANNELS 6 Xposition Yposition Zposition Xrotation Yrotation Zrotation
												End Site
												{
													OFFSET -294.664337 0.000000 -0.113670
												}
											}
										}
									}
								}
								JOINT mixamorig:RightHandRing1
								{
									OFFSET -9.103600 -0.043076 -1.865134
									CHANNELS 6 Xposition Yposition Zposition Xrotation Yrotation Zrotation
									JOINT mixamorig:RightHandRing2
									{
										OFFSET -3.379288 0.000000 -0.001055
										CHANNELS 6 Xposition Yposition Zposition Xrotation Yrotation Zrotation
										JOINT mixamorig:RightHandRing3
										{
											OFFSET -2.889687 -0.000015 0.000379
											CHANNELS 6 Xposition Yposition Zposition Xrotation Yrotation Zrotation
											JOINT mixamorig:RightHandRing4
											{
												OFFSET -2.638809 -0.000015 0.000941
												CHANNELS 6 Xposition Yposition Zposition Xrotation Yrotation Zrotation
												End Site
												{
													OFFSET -263.880371 0.000000 0.516020
												}
											}
										}
									}
								}
								JOINT mixamorig:RightHandPinky1
								{
									OFFSET -8.076683 -0.486710 -3.806280
									CHANNELS 6 Xposition Yposition Zposition Xrotation Yrotation Zrotation
									JOINT mixamorig:RightHandPinky2
									{
										OFFSET -3.600014 -0.000015 -0.003747
										CHANNELS 6 Xposition Yposition Zposition Xrotation Yrotation Zrotation
										JOINT mixamorig:RightHandPinky3
										{
											OFFSET -2.099983 0.000000 -0.005739
											CHANNELS 6 Xposition Yposition Zposition Xrotation Yrotation Zrotation
											JOINT mixamorig:RightHandPinky4
											{
												OFFSET -2.115768 -0.000031 -0.003680
												CHANNELS 6 Xposition Yposition Zposition Xrotation Yrotation Zrotation
												End Site
												{
													OFFSET -211.577087 0.000000 -0.350686
												}
											}
										}
									}
								}
							}
						}
					}
				}
				JOINT mixamorig:LeftShoulder
				{
					OFFSET 4.570447 11.014725 -2.160855
					CHANNELS 6 Xposition Yposition Zposition Xrotation Yrotation Zrotation
					JOINT mixamorig:LeftArm
					{
						OFFSET 10.592371 -0.524597 -2.232119
						CHANNELS 6 Xposition Yposition Zposition Xrotation Yrotation Zrotation
						JOINT mixamorig:LeftForeArm
						{
							OFFSET 27.841532 -0.000031 0.000026
							CHANNELS 6 Xposition Yposition Zposition Xrotation Yrotation Zrotation
							JOINT mixamorig:LeftHand
							{
								OFFSET 28.328846 -0.000061 0.000022
								CHANNELS 6 Xposition Yposition Zposition Xrotation Yrotation Zrotation
								JOINT mixamorig:LeftHandThumb1
								{
									OFFSET 2.466141 -1.576172 2.681732
									CHANNELS 6 Xposition Yposition Zposition Xrotation Yrotation Zrotation
									JOINT mixamorig:LeftHandThumb2
									{
										OFFSET 3.217812 -1.872070 1.916482
										CHANNELS 6 Xposition Yposition Zposition Xrotation Yrotation Zrotation
										JOINT mixamorig:LeftHandThumb3
										{
											OFFSET 2.656029 -1.528778 1.514513
											CHANNELS 6 Xposition Yposition Zposition Xrotation Yrotation Zrotation
											JOINT mixamorig:LeftHandThumb4
											{
												OFFSET 2.020889 -1.154053 1.115139
												CHANNELS 6 Xposition Yposition Zposition Xrotation Yrotation Zrotation
												End Site
												{
													OFFSET 190.885437 -115.081749 130.048782
												}
											}
										}
									}
								}
								JOINT mixamorig:LeftHandIndex1
								{
									OFFSET 9.109314 -0.518021 2.259871
									CHANNELS 6 Xposition Yposition Zposition Xrotation Yrotation Zrotation
									JOINT mixamorig:LeftHandIndex2
									{
										OFFSET 3.699989 0.000000 -0.000322
										CHANNELS 6 Xposition Yposition Zposition Xrotation Yrotation Zrotation
										JOINT mixamorig:LeftHandIndex3
										{
											OFFSET 2.850006 0.000000 0.000352
											CHANNELS 6 Xposition Yposition Zposition Xrotation Yrotation Zrotation
											JOINT mixamorig:LeftHandIndex4
											{
												OFFSET 2.774864 -0.000031 -0.000027
												CHANNELS 6 Xposition Yposition Zposition Xrotation Yrotation Zrotation
												End Site
												{
													OFFSET 277.486267 0.000000 -0.009857
												}
											}
										}
									}
								}
								JOINT mixamorig:LeftHandMiddle1
								{
									OFFSET 9.533394 0.000061 0.000044
									CHANNELS 6 Xposition Yposition Zposition Xrotation Yrotation Zrotation
									JOINT mixamorig:LeftHandMiddle2
									{
										OFFSET 3.699989 -0.000015 -0.000231
										CHANNELS 6 Xposition Yposition Zposition Xrotation Yrotation Zrotation
										JOINT mixamorig:LeftHandMiddle3
										{
											OFFSET 2.949997 -0.000015 -0.000059
											CHANNELS 6 Xposition Yposition Zposition Xrotation Yrotation Zrotation
											JOINT mixamorig:LeftHandMiddle4
											{
												OFFSET 2.952896 0.000031 0.000063
												CHANNELS 6 Xposition Yposition Zposition Xrotation Yrotation Zrotation
												End Site
												{
													OFFSET 295.289337 0.000000 0.022810
												}
											}
										}
									}
								}
								JOINT mixamorig:LeftHandRing1
								{
									OFFSET 9.104523 -0.042999 -1.865074
									CHANNELS 6 Xposition Yposition Zposition Xrotation Yrotation Zrotation
									JOINT mixamorig:LeftHandRing2
									{
										OFFSET 3.150009 -0.000031 0.000043
										CHANNELS 6 Xposition Yposition Zposition Xrotation Yrotation Zrotation
										JOINT mixamorig:LeftHandRing3
										{
											OFFSET 2.949982 -0.000015 0.000040
											CHANNELS 6 Xposition Yposition Zposition Xrotation Yrotation Zrotation
											JOINT mixamorig:LeftHandRing4
											{
												OFFSET 2.644348 0.000000 0.000057
												CHANNELS 6 Xposition Yposition Zposition Xrotation Yrotation Zrotation
												End Site
												{
													OFFSET 264.434631 0.000000 0.012105
												}
											}
										}
									}
								}
								JOINT mixamorig:LeftHandPinky1
								{
									OFFSET 8.077789 -0.486847 -3.806259
									CHANNELS 6 Xposition Yposition Zposition Xrotation Yrotation Zrotation
									JOINT mixamorig:LeftHandPinky2
									{
										OFFSET 3.599953 0.000031 0.014727
										CHANNELS 6 Xposition Yposition Zposition Xrotation Yrotation Zrotation
										JOINT mixamorig:LeftHandPinky3
										{
											OFFSET 2.100021 0.000015 0.007705
											CHANNELS 6 Xposition Yposition Zposition Xrotation Yrotation Zrotation
											JOINT mixamorig:LeftHandPinky4
											{
												OFFSET 2.125504 0.000031 0.007517
												CHANNELS 6 Xposition Yposition Zposition Xrotation Yrotation Zrotation
												End Site
												{
													OFFSET 212.550781 0.000000 0.625752
												}
											}
										}
									}
								}
							}
						}
					}
				}
			}
		}
	}
	JOINT mixamorig:RightUpLeg
	{
		OFFSET -8.207787 -6.751648 -1.599560
		CHANNELS 6 Xposition Yposition Zposition Xrotation Yrotation Zrotation
		JOINT mixamorig:RightLeg
		{
			OFFSET -0.000002 -44.370117 0.345942
			CHANNELS 6 Xposition Yposition Zposition Xrotation Yrotation Zrotation
			JOINT mixamorig:RightFoot
			{
				OFFSET 0.000003 -44.423679 -3.043532
				CHANNELS 6 Xposition Yposition Zposition Xrotation Yrotation Zrotation
				JOINT mixamorig:RightToeBase
				{
					OFFSET -0.000002 -8.728671 10.710558
					CHANNELS 6 Xposition Yposition Zposition Xrotation Yrotation Zrotation
					JOINT mixamorig:RightToe_End
					{
						OFFSET -0.000001 -0.000679 9.278119
						CHANNELS 6 Xposition Yposition Zposition Xrotation Yrotation Zrotation
						End Site
						{
							OFFSET 0.000000 -0.067690 927.812134
						}
					}
				}
			}
		}
	}
	JOINT mixamorig:LeftUpLeg
	{
		OFFSET 8.207793 -6.751686 -1.599556
		CHANNELS 6 Xposition Yposition Zposition Xrotation Yrotation Zrotation
		JOINT mixamorig:LeftLeg
		{
			OFFSET -0.000004 -44.370014 0.346954
			CHANNELS 6 Xposition Yposition Zposition Xrotation Yrotation Zrotation
			JOINT mixamorig:LeftFoot
			{
				OFFSET -0.000001 -44.423672 -3.044401
				CHANNELS 6 Xposition Yposition Zposition Xrotation Yrotation Zrotation
				JOINT mixamorig:LeftToeBase
				{
					OFFSET -0.000002 -8.728669 10.710558
					CHANNELS 6 Xposition Yposition Zposition Xrotation Yrotation Zrotation
					JOINT mixamorig:LeftToe_End
					{
						OFFSET -0.000003 -0.000679 9.278133
						CHANNELS 6 Xposition Yposition Zposition Xrotation Yrotation Zrotation
						End Site
						{
							OFFSET 0.000000 -0.068021 927.813477
						}
					}
				}
			}
		}
	}
}
MOTION
Frames: 3
Frame Time: 0.033333
0.000006 104.270477 1.554256 0.000010 0.000003 -0.000113 -0.000005 10.181587 0.131522 0.000001 -0.000003 0.000084 -0.000000 9.893967 -1.470711 0.000001 0.000000 -0.000000 -0.000000 9.220802 -1.370642 0.000000 -0.000000 -0.000000 0.000001 16.740433 -2.049030 0.000000 -0.000000 -0.000000 0.000000 9.617859 1.685014 0.000000 0.000000 0.000000 0.000002 22.037384 7.501101 0.000000 -0.000000 0.000000 -4.569968 11.014880 -2.160881 0.000008 0.000001 -0.000038 -10.592865 -0.524672 -2.232023 70.617865 6.774496 -4.800992 -27.841532 0.000022 0.000520 -58.948480 116.430383 84.734637 -28.328823 0.000021 0.000021 -0.000316 -0.000045 0.000008 -2.464512 -1.573965 2.682414 -20.584645 -157.251841 47.578343 -3.215295 -1.872611 1.924679 161.458719 30.823305 -3.913396 -2.654939 -1.527936 1.513098 152.307631 24.557156 -46.111051 -2.018834 -1.151996 1.108057 -0.000001 -0.000005 0.000002 -9.108397 -0.517553 2.260145 104.670026 18.555307 -23.959016 -3.700060 0.000302 0.001521 102.615020 14.186415 -17.632547 -2.850096 0.000374 -0.000222 100.421416 11.134165 -13.349110 -2.772186 0.000009 -0.000012 -0.000004 0.000000 -0.000000 -9.532595 0.000268 0.000204 85.988366 16.307020 -15.350316 -3.700057 0.000312 0.003936 87.846703 10.566830 -10.089450 -2.950062 0.000331 -0.001864 85.978462 9.995964 -9.314469 -2.946623 0.000000 -0.000151 -0.000002 0.000003 -0.000001 -9.103718 -0.042756 -1.864922 82.587444 18.040422 -15.835420 -3.379311 0.000321 -0.000843 84.840894 9.306930 -8.523378 -2.889735 0.000366 0.000601 86.696855 5.378031 -5.119067 -2.638811 -0.000016 0.000944 -0.000002 -0.000004 0.000001 -8.076748 -0.486405 -3.806103 69.950344 16.148843 -11.228378 -3.600029 0.000253 -0.003593 74.296762 8.384357 -6.086170 -2.100005 0.000302 -0.005566 76.995268 4.987439 -3.794402 -2.115768 -0.000042 -0.003678 -0.000001 -0.000002 -0.000003 4.570446 11.014691 -2.160851 -0.000018 0.000010 -0.000021 10.592360 -0.524529 -2.232273 70.535650 8.527791 -6.036328 27.841841 0.000124 -0.000223 107.288666 -64.128052 80.798324 28.328817 -0.000028 0.000029 0.000020 -0.000089 -0.000000 2.465994 -1.576171 2.681907 -38.484489 154.624732 -9.506449 3.217714 -1.871690 1.916370 149.406153 -33.595873 -24.790916 2.656090 -1.528577 1.514440 146.431073 -27.415357 31.697385 2.020880 -1.154065 1.115144 0.000002 0.000006 0.000001 9.109380 -0.517825 2.259750 93.227260 -14.763710 15.596457 3.700046 0.000165 -0.000443 91.285048 -15.787487 16.158716 2.850070 0.000210 0.000206 90.407635 -13.876321 13.973095 2.774881 -0.000047 -0.000016 0.000003 0.000002 -0.000001 9.533457 0.000226 -0.000083 91.271702 -15.318492 15.649121 3.700061 0.000189 -0.000361 92.659378 -15.672789 16.404841 2.950067 0.000167 -0.000191 94.056049 -18.377816 19.704898 2.952853 -0.000015 0.000063 0.000003 0.000000 0.000002 9.104576 -0.042829 -1.865239 91.203181 -14.483078 14.789036 3.150058 0.000217 -0.000094 95.765338 -13.841887 15.295304 2.950045 0.000191 -0.000073 97.834783 -14.732004 16.870847 2.644319 0.000046 0.000063 -0.000000 0.000001 -0.000000 8.077844 -0.486711 -3.806409 80.401251 -16.453185 14.430788 3.600000 0.000206 0.014570 81.925339 -12.154670 10.999919 2.100026 0.000199 0.007544 86.334650 -10.819475 10.598525 2.125492 -0.000027 0.007522 -0.000000 -0.000002 0.000002 -8.207786 -6.751667 -1.599560 -0.077001 -0.000003 0.000080 -0.000002 -44.370110 0.345938 0.153719 -0.000000 -0.000000 0.000000 -44.423679 -3.043532 -0.076700 0.000000 -0.000002 -0.000006 -8.728667 10.710559 -0.000009 -0.000000 -0.000000 -0.000001 -0.000679 9.278123 0.000000 -0.000000 -0.000000 8.207792 -6.751710 -1.599556 -0.074518 -0.000003 0.000081 -0.000002 -44.370014 0.346960 0.148822 0.000002 0.000000 -0.000001 -44.423664 -3.044403 -0.074314 0.000000 -0.000002 -0.000004 -8.728671 10.710558 0.000007 -0.000000 -0.000000 0.000000 -0.000680 9.278137 -0.000000 0.000000 -0.000001 
0.000006 104.270477 1.554256 0.000010 0.000003 -0.000113 -0.000005 10.181587 0.131522 0.000001 -0.000003 0.000084 -0.000000 9.893967 -1.470711 0.000001 0.000000 -0.000000 -0.000000 9.220802 -1.370642 0.000000 -0.000000 -0.000000 0.000001 16.740433 -2.049030 0.000000 -0.000000 -0.000000 0.000000 9.617859 1.685014 0.000000 0.000000 0.000000 0.000002 22.037384 7.501101 0.000000 -0.000000 0.000000 -4.569968 11.014880 -2.160881 0.000008 0.000001 -0.000038 -10.592870 -0.524682 -2.232020 70.299073 8.351864 -5.885849 -27.841537 0.000023 0.000526 -58.206722 115.588302 82.938912 -28.328833 0.000020 0.000023 -0.000320 -0.000045 0.000006 -2.464416 -1.573828 2.682367 -39.359382 -160.162663 10.295962 -3.215258 -1.872516 1.924637 151.925715 33.494496 19.253385 -2.654944 -1.527912 1.513090 148.391911 26.615171 -37.414701 -2.018830 -1.152017 1.108063 -0.000006 0.000003 0.000004 -9.108367 -0.517541 2.260131 102.733995 15.186448 -18.996484 -3.700084 0.000314 0.001529 103.391893 12.075954 -15.225369 -2.850095 0.000359 -0.000231 102.460836 10.149044 -12.617353 -2.772167 -0.000001 -0.000028 0.000000 0.000000 0.000001 -9.532590 0.000278 0.000212 88.698305 16.426033 -16.201702 -3.700063 0.000320 0.003955 87.197439 12.421479 -11.742001 -2.950077 0.000334 -0.001815 88.965946 11.673548 -11.459166 -2.946632 0.000001 -0.000148 0.000000 0.000002 -0.000000 -9.103708 -0.042783 -1.864896 81.852393 21.161739 -18.358990 -3.379329 0.000309 -0.000851 82.092071 11.251578 -9.819810 -2.889759 0.000357 0.000606 88.997713 6.761815 -6.689463 -2.638801 -0.000016 0.000939 -0.000000 -0.000002 -0.000000 -8.076752 -0.486411 -3.806085 70.454412 19.448544 -13.687740 -3.600035 0.000247 -0.003606 72.411658 9.576297 -6.751339 -2.100021 0.000299 -0.005556 77.084415 6.150108 -4.724457 -2.115768 -0.000041 -0.003676 -0.000000 -0.000001 -0.000003 4.570446 11.014691 -2.160851 -0.000018 0.000010 -0.000021 10.592360 -0.524537 -2.232280 70.287790 11.484213 -8.098000 27.841841 0.000101 -0.000233 107.869007 -65.775862 83.202236 28.328859 -0.000028 0.000023 0.000019 -0.000090 0.000001 2.466113 -1.576175 2.681901 -23.500915 156.045575 -40.704191 3.217791 -1.871736 1.916371 158.801024 -31.572587 -0.902308 2.656110 -1.528634 1.514465 144.604107 -26.514776 46.664686 2.020887 -1.154076 1.115140 0.000003 -0.000002 0.000001 9.109392 -0.517834 2.259752 94.516069 -18.586227 20.068563 3.700048 0.000194 -0.000465 92.140447 -13.914562 14.456551 2.850050 0.000203 0.000225 91.089909 -11.067183 11.277079 2.774894 -0.000042 -0.000013 -0.000001 0.000000 0.000000 9.533480 0.000211 -0.000103 92.095682 -18.148711 18.803741 3.700050 0.000193 -0.000367 92.606498 -12.513077 13.087922 2.950046 0.000212 -0.000200 93.801187 -12.244789 13.081417 2.952857 -0.000030 0.000062 0.000001 0.000001 0.000001 9.104604 -0.042837 -1.865215 91.877888 -17.513510 18.089674 3.150046 0.000203 -0.000090 95.353867 -11.292351 12.393840 2.950012 0.000209 -0.000100 97.330114 -10.052168 11.421490 2.644312 0.000014 0.000056 -0.000002 -0.000001 -0.000001 8.077863 -0.486714 -3.806405 82.788436 -18.794229 17.130140 3.599993 0.000201 0.014572 83.360874 -14.085920 13.013359 2.100027 0.000197 0.007560 85.744009 -10.381257 10.080573 2.125491 -0.000016 0.007523 -0.000001 0.000000 -0.000001 -8.207786 -6.751667 -1.599560 -0.077001 -0.000003 0.000080 -0.000002 -44.370110 0.345938 0.153719 -0.000000 -0.000000 0.000000 -44.423679 -3.043532 -0.076700 0.000000 -0.000002 -0.000006 -8.728667 10.710559 -0.000009 -0.000000 -0.000000 -0.000001 -0.000679 9.278123 0.000000 -0.000000 -0.000000 8.207792 -6.751710 -1.599556 -0.074518 -0.000003 0.000081 -0.000002 -44.370014 0.346960 0.148822 0.000002 0.000000 -0.000001 -44.423664 -3.044403 -0.074314 0.000000 -0.000002 -0.000004 -8.728671 10.710558 0.000007 -0.000000 -0.000000 0.000000 -0.000680 9.278137 -0.000000 0.000000 -0.000001 
0.000006 104.270477 1.554256 0.000010 0.000003 -0.000113 -0.000005 10.181587 0.131522 0.000001 -0.000003 0.000084 -0.000000 9.893967 -1.470711 0.000001 0.000000 -0.000000 -0.000000 9.220802 -1.370642 0.000000 -0.000000 -0.000000 0.000001 16.740433 -2.049030 0.000000 -0.000000 -0.000000 0.000000 9.617859 1.685014 0.000000 0.000000 0.000000 0.000002 22.037384 7.501101 0.000000 -0.000000 0.000000 -4.569968 11.014880 -2.160881 0.000008 0.000001 -0.000038 -10.592883 -0.524723 -2.231977 70.269697 17.998301 -12.718497 -27.841528 0.000012 0.000535 -56.588838 110.473665 75.594457 -28.328850 0.000022 0.000021 -0.000321 -0.000045 0.000006 -2.464433 -1.573742 2.682336 -49.159498 -170.587185 -13.237485 -3.215286 -1.872596 1.924647 153.658656 30.870068 -0.142002 -2.654971 -1.527874 1.513072 144.670250 27.467150 -36.054796 -2.018842 -1.152004 1.108050 0.000003 -0.000001 0.000002 -9.108373 -0.517555 2.260128 102.160437 15.011695 -18.591655 -3.700059 0.000320 0.001535 102.929633 11.493384 -14.374359 -2.850081 0.000377 -0.000230 101.758235 9.344991 -11.476341 -2.772165 -0.000017 -0.000019 0.000001 0.000000 0.000001 -9.532596 0.000277 0.000218 89.100166 15.673853 -15.572302 -3.700063 0.000331 0.003948 88.678006 11.975281 -11.611599 -2.950042 0.000319 -0.001843 89.525612 11.455651 -11.354775 -2.946625 0.000001 -0.000152 -0.000003 -0.000000 0.000000 -9.103705 -0.042764 -1.864899 82.748370 19.464636 -17.141212 -3.379318 0.000291 -0.000846 84.261612 11.422608 -10.354574 -2.889751 0.000366 0.000619 90.168722 7.187415 -7.254374 -2.638803 -0.000027 0.000939 -0.000004 -0.000002 0.000001 -8.076756 -0.486401 -3.806097 72.493067 18.206733 -13.285940 -3.600047 0.000254 -0.003586 73.560823 10.186150 -7.349516 -2.100005 0.000299 -0.005548 77.502081 6.695540 -5.196725 -2.115761 -0.000042 -0.003683 0.000000 0.000000 -0.000003 4.570446 11.014691 -2.160851 -0.000018 0.000010 -0.000021 10.592365 -0.524522 -2.232283 69.927005 4.626180 -3.235721 27.841843 0.000083 -0.000201 109.128139 -67.664751 86.572470 28.328833 -0.000029 0.000024 0.000021 -0.000088 -0.000000 2.466114 -1.576163 2.681910 -26.444189 156.919512 -35.713901 3.217834 -1.871788 1.916381 159.303849 -27.065021 21.734589 2.656097 -1.528644 1.514458 142.892981 -27.055074 45.699959 2.020891 -1.154084 1.115152 0.000000 0.000002 0.000003 9.109403 -0.517840 2.259738 95.876083 -18.078737 19.983344 3.700048 0.000189 -0.000461 94.890527 -13.611875 14.831848 2.850061 0.000214 0.000209 92.869331 -10.982135 11.541281 2.774884 -0.000029 -0.000030 -0.000001 0.000003 -0.000002 9.533484 0.000229 -0.000090 91.979405 -17.968281 18.579849 3.700051 0.000198 -0.000369 92.854625 -12.610227 13.246278 2.950052 0.000214 -0.000201 93.145291 -11.786105 12.449525 2.952884 -0.000016 0.000070 -0.000000 0.000002 -0.000001 9.104624 -0.042842 -1.865206 91.801581 -17.363118 17.911022 3.150076 0.000195 -0.000095 94.030395 -12.275342 13.165060 2.950022 0.000203 -0.000087 94.915546 -10.301086 11.221265 2.644331 0.000047 0.000057 0.000001 0.000000 0.000001 8.077862 -0.486711 -3.806392 83.337590 -18.764165 17.266636 3.600018 0.000177 0.014568 83.035826 -15.492348 14.196329 2.100043 0.000193 0.007552 83.933388 -11.108060 10.425968 2.125502 -0.000016 0.007511 -0.000001 -0.000002 0.000001 -8.207786 -6.751667 -1.599560 -0.077001 -0.000003 0.000080 -0.000002 -44.370110 0.345938 0.153719 -0.000000 -0.000000 0.000000 -44.423679 -3.043532 -0.076700 0.000000 -0.000002 -0.000006 -8.728667 10.710559 -0.000009 -0.000000 -0.000000 -0.000001 -0.000679 9.278123 0.000000 -0.000000 -0.000000 8.207792 -6.751710 -1.599556 -0.074518 -0.000003 0.000081 -0.000002 -44.370014 0.346960 0.148822 0.000002 0.000000 -0.000001 -44.423664 -3.044403 -0.074314 0.000000 -0.000002 -0.000004 -8.728671 10.710558 0.000007 -0.000000 -0.000000 0.000000 -0.000680 9.278137 -0.000000 0.000000 -0.000001 
